# xmcd
#
# Track frame offsets:
#	150
#	25460
#	44818
#	97486
#	140413
#	155655
#	183957
#	203556
#	236409
#	278472
#
# Disc length: 4314 seconds
#
# Revision: 1
# Processed by: cddbd v1.5.2PL0 Copyright (c) Steve Scherf et al.
# Submitted via: audiograbber 1.83.01
#
DISCID=8e10d80a
DTITLE=Grateful Dead - 69-12-29 Boston Tea Party, Boston MA
DYEAR=1900
DGENRE=
TTITLE0=Cold Rain and Snow
TTITLE1=Mama Tried
TTITLE2=Black Peter
TTITLE3=Easy Wind
TTITLE4=Me and My Uncle
TTITLE5=China Cat Sunflower
TTITLE6=I Know You Rider
TTITLE7=High Time
TTITLE8=Hard To Handle
TTITLE9=Mason's Children
EXTD=
EXTT0=
EXTT1=
EXTT2=
EXTT3=
EXTT4=
EXTT5=
EXTT6=
EXTT7=
EXTT8=
EXTT9=
PLAYORDER=
